
            <svg xmlns="http://www.w3.org/2000/svg" xmlns:cc="http://creativecommons.org/ns#" xmlns:rdf="http://www.w3.org/1999/02/22-rdf-syntax-ns#" version="1.1" width="1089" height="190">
              <defs>
                <style type="text/css">svg{background-color:#fff}text,tspan{font:12px Arial}path{fill-opacity:0;stroke-width:2px;stroke:#000}circle{fill:#6b6659;stroke-width:2px;stroke:#000}.anchor text,.any-character text{fill:#fff}.anchor rect,.any-character rect{fill:#6b6659}.escape text,.charset-escape text,.literal text{fill:#000}.escape rect,.charset-escape rect{fill:#bada55}.literal rect{fill:#dae9e5}.charset .charset-box{fill:#cbcbba}.subexp .subexp-label tspan,.charset .charset-label tspan,.match-fragment .repeat-label tspan{font-size:10px}.repeat-label{cursor:help}.subexp .subexp-label tspan,.charset .charset-label tspan{dominant-baseline:text-after-edge}.subexp .subexp-box{stroke:#908c83;stroke-dasharray:6,2;stroke-width:2px;fill-opacity:0}.quote{fill:#908c83}
          </style>
              </defs>
              <metadata>
                <rdf:rdf>
                  <cc:license rdf:about="http://creativecommons.org/licenses/by/3.0/">
                    <cc:permits rdf:resource="http://creativecommons.org/ns#Reproduction"></cc:permits>
                    <cc:permits rdf:resource="http://creativecommons.org/ns#Distribution"></cc:permits>
                    <cc:requires rdf:resource="http://creativecommons.org/ns#Notice"></cc:requires>
                    <cc:requires rdf:resource="http://creativecommons.org/ns#Attribution"></cc:requires>
                    <cc:permits rdf:resource="http://creativecommons.org/ns#DerivativeWorks"></cc:permits>
                  </cc:license>
                </rdf:rdf>
              </metadata>
            <desc>Created with Snap</desc><g transform="matrix(1,0,0,1,15,10)" class="root"><g transform="matrix(1,0,0,1,10,0)" class="regexp match match-fragment subexp"><rect rx="3" ry="3" class="subexp-box" transform="matrix(1,0,0,1,0,15)" width="1039" height="155"></rect><text x="0" y="0" transform="matrix(1,0,0,1,0,15)" class="subexp-label"><tspan>group #1</tspan></text><g transform="matrix(1,0,0,1,10,25)" class="regexp match"><path d="M376,82.5H446"></path><g class="match-fragment" transform="matrix(1,0,0,1,0,0)"><path d="M0,82.5q10,0 10,-10v-62.5q0,-10 10,-10h376q10,0 10,10v62.5q0,10 10,10"></path><g class="subexp" transform="matrix(1,0,0,1,15,10)"><rect rx="3" ry="3" class="subexp-box" transform="matrix(1,0,0,1,0,15)" width="386" height="110"></rect><text x="0" y="0" transform="matrix(1,0,0,1,0,15)" class="subexp-label"><tspan>group #2</tspan></text><g transform="matrix(1,0,0,1,10,25)" class="regexp match"><path d="M84,47.5H124M200,47.5H225M250,47.5H275"></path><g class="match-fragment" transform="matrix(1,0,0,1,0,0)"><path d="M10,47.5q-10,0 -10,10v22.5q0,10 10,10h74q10,0 10,-10v-22.5q0,-10 -10,-10M94,62.5l5,-5m-5,5l-5,-5"></path><g class="charset" transform="matrix(1,0,0,1,10,0)"><rect rx="3" ry="3" class="charset-box" transform="matrix(1,0,0,1,0,15)" width="74" height="65"></rect><text x="0" y="0" transform="matrix(1,0,0,1,0,15)" class="charset-label"><tspan>One of:</tspan></text><g transform="matrix(1,0,0,1,5,20)"><g transform="matrix(1,0,0,1,1,0)" class="charset-range"><text x="0" y="0" transform="matrix(1,0,0,1,30,17)">-</text><g class="literal" transform="matrix(1,0,0,1,0,0)"><g class="label"><rect width="25" height="25" rx="3" ry="3"></rect><text x="0" y="0" transform="matrix(1,0,0,1,5,17.5)"><tspan class="quote">“</tspan><tspan>a</tspan><tspan class="quote">”</tspan></text></g></g><g class="literal" transform="matrix(1,0,0,1,39,0)"><g class="label"><rect width="23" height="25" rx="3" ry="3"></rect><text x="0" y="0" transform="matrix(1,0,0,1,5,17.5)"><tspan class="quote">“</tspan><tspan>z</tspan><tspan class="quote">”</tspan></text></g></g></g><g transform="matrix(1,0,0,1,0,30)" class="charset-range"><text x="0" y="0" transform="matrix(1,0,0,1,30,17)">-</text><g class="literal" transform="matrix(1,0,0,1,0,0)"><g class="label"><rect width="25" height="25" rx="3" ry="3"></rect><text x="0" y="0" transform="matrix(1,0,0,1,5,17.5)"><tspan class="quote">“</tspan><tspan>A</tspan><tspan class="quote">”</tspan></text></g></g><g class="literal" transform="matrix(1,0,0,1,39,0)"><g class="label"><rect width="25" height="25" rx="3" ry="3"></rect><text x="0" y="0" transform="matrix(1,0,0,1,5,17.5)"><tspan class="quote">“</tspan><tspan>Z</tspan><tspan class="quote">”</tspan></text></g></g></g></g></g></g><g class="match-fragment" transform="matrix(1,0,0,1,109,25)"><path d="M0,22.5q10,0 10,-10v-2.5q0,-10 10,-10h66q10,0 10,10v2.5q0,10 10,10"></path><g class="escape" transform="matrix(1,0,0,1,15,10)"><g class="label"><rect width="76" height="25" rx="3" ry="3"></rect><text x="0" y="0" transform="matrix(1,0,0,1,5,17.5)"><tspan>white space</tspan></text></g></g></g><g class="match-fragment literal" transform="matrix(1,0,0,1,225,35)"><g class="label"><rect width="25" height="25" rx="3" ry="3"></rect><text x="0" y="0" transform="matrix(1,0,0,1,5,17.5)"><tspan class="quote">“</tspan><tspan>=</tspan><tspan class="quote">”</tspan></text></g></g><g class="match-fragment" transform="matrix(1,0,0,1,260,25)"><path d="M0,22.5q10,0 10,-10v-2.5q0,-10 10,-10h66q10,0 10,10v2.5q0,10 10,10"></path><g class="escape" transform="matrix(1,0,0,1,15,10)"><g class="label"><rect width="76" height="25" rx="3" ry="3"></rect><text x="0" y="0" transform="matrix(1,0,0,1,5,17.5)"><tspan>white space</tspan></text></g></g></g></g></g></g><g class="match-fragment" transform="matrix(1,0,0,1,426,10)"><path d="M10,72.5q-10,0 -10,10v32.5q0,10 10,10h568q10,0 10,-10v-32.5q0,-10 -10,-10M588,87.5l5,-5m-5,5l-5,-5"></path><g class="subexp" transform="matrix(1,0,0,1,10,0)"><rect rx="3" ry="3" class="subexp-box" transform="matrix(1,0,0,1,0,15)" width="568" height="100"></rect><text x="0" y="0" transform="matrix(1,0,0,1,0,15)" class="subexp-label"><tspan>group #3</tspan></text><g transform="matrix(1,0,0,1,10,25)" class="regexp match"><path d="M22,47.5H47M69,47.5H129M208,47.5H253M286,47.5H311M332,47.5H357M433,47.5H468M501,47.5H526"></path><g class="match-fragment literal" transform="matrix(1,0,0,1,0,35)"><g class="label"><rect width="22" height="25" rx="3" ry="3"></rect><text x="0" y="0" transform="matrix(1,0,0,1,5,17.5)"><tspan class="quote">“</tspan><tspan>(</tspan><tspan class="quote">”</tspan></text></g></g><g class="match-fragment" transform="matrix(1,0,0,1,32,25)"><path d="M0,22.5q10,0 10,-10v-2.5q0,-10 10,-10h12q10,0 10,10v2.5q0,10 10,10"></path><g class="literal" transform="matrix(1,0,0,1,15,10)"><g class="label"><rect width="22" height="25" rx="3" ry="3"></rect><text x="0" y="0" transform="matrix(1,0,0,1,5,17.5)"><tspan class="quote">“</tspan><tspan>-</tspan><tspan class="quote">”</tspan></text></g></g></g><g class="match-fragment" transform="matrix(1,0,0,1,94,0)"><path d="M0,47.5q10,0 10,-10v-27.5q0,-10 10,-10h99q10,0 10,10v27.5q0,10 10,10"></path><g class="subexp" transform="matrix(1,0,0,1,15,10)"><rect rx="3" ry="3" class="subexp-box" transform="matrix(1,0,0,1,0,15)" width="109" height="55"></rect><text x="0" y="0" transform="matrix(1,0,0,1,0,15)" class="subexp-label"><tspan>group #4</tspan></text><g transform="matrix(1,0,0,1,10,25)" class="regexp match"><path d="M43,12.5H68"></path><g class="match-fragment" transform="matrix(1,0,0,1,0,0)"><path d="M10,12.5q-10,0 -10,10v2.5q0,10 10,10h33q10,0 10,-10v-2.5q0,-10 -10,-10M53,27.5l5,-5m-5,5l-5,-5"></path><g transform="matrix(1,0,0,1,10,0)" class="escape"><g class="label"><rect width="33" height="25" rx="3" ry="3"></rect><text x="0" y="0" transform="matrix(1,0,0,1,5,17.5)"><tspan>digit</tspan></text></g></g></g><g class="match-fragment literal" transform="matrix(1,0,0,1,68,0)"><g class="label"><rect width="21" height="25" rx="3" ry="3"></rect><text x="0" y="0" transform="matrix(1,0,0,1,5,17.5)"><tspan class="quote">“</tspan><tspan>.</tspan><tspan class="quote">”</tspan></text></g></g></g></g></g><g class="match-fragment" transform="matrix(1,0,0,1,243,35)"><path d="M10,12.5q-10,0 -10,10v2.5q0,10 10,10h33q10,0 10,-10v-2.5q0,-10 -10,-10M53,27.5l5,-5m-5,5l-5,-5"></path><g class="escape" transform="matrix(1,0,0,1,10,0)"><g class="label"><rect width="33" height="25" rx="3" ry="3"></rect><text x="0" y="0" transform="matrix(1,0,0,1,5,17.5)"><tspan>digit</tspan></text></g></g></g><g class="match-fragment literal" transform="matrix(1,0,0,1,311,35)"><g class="label"><rect width="21" height="25" rx="3" ry="3"></rect><text x="0" y="0" transform="matrix(1,0,0,1,5,17.5)"><tspan class="quote">“</tspan><tspan>,</tspan><tspan class="quote">”</tspan></text></g></g><g class="match-fragment" transform="matrix(1,0,0,1,342,25)"><path d="M0,22.5q10,0 10,-10v-2.5q0,-10 10,-10h66q10,0 10,10v2.5q0,10 10,10"></path><g class="escape" transform="matrix(1,0,0,1,15,10)"><g class="label"><rect width="76" height="25" rx="3" ry="3"></rect><text x="0" y="0" transform="matrix(1,0,0,1,5,17.5)"><tspan>white space</tspan></text></g></g></g><g class="match-fragment" transform="matrix(1,0,0,1,458,35)"><path d="M10,12.5q-10,0 -10,10v2.5q0,10 10,10h33q10,0 10,-10v-2.5q0,-10 -10,-10M53,27.5l5,-5m-5,5l-5,-5"></path><g class="escape" transform="matrix(1,0,0,1,10,0)"><g class="label"><rect width="33" height="25" rx="3" ry="3"></rect><text x="0" y="0" transform="matrix(1,0,0,1,5,17.5)"><tspan>digit</tspan></text></g></g></g><g class="match-fragment literal" transform="matrix(1,0,0,1,526,35)"><g class="label"><rect width="22" height="25" rx="3" ry="3"></rect><text x="0" y="0" transform="matrix(1,0,0,1,5,17.5)"><tspan class="quote">“</tspan><tspan>)</tspan><tspan class="quote">”</tspan></text></g></g></g></g></g></g></g><path d="M55,107.5H0M1014,107.5H1059"></path><circle cx="0" cy="107.5" r="5"></circle><circle cx="1059" cy="107.5" r="5"></circle></g></svg>
          